<?xml version="1.0" encoding="UTF-8"?>
<svg id="Layer_1" xmlns="http://www.w3.org/2000/svg" version="1.1" viewBox="0 0 841.89 595.28">
  <!-- Generator: Adobe Illustrator 30.2.1, SVG Export Plug-In . SVG Version: 2.1.1 Build 1)  -->
  <defs>
    <style>
      .st0 {
        fill: #b9bab7;
      }

      .st1 {
        fill: #c1a77c;
      }

      .st2 {
        fill: #576b5e;
      }
    </style>
  </defs>
  <path class="st2" d="M46.68,279.84l-.38-.09s-.15.1.38.09Z"/>
  <g>
    <path class="st0" d="M278.43,203.46c0,7.62.01,17.88.04,30.79.03,12.91.04,24.91.02,35.98-.02,11.07-.08,17.66-.19,19.77-.03.08-.04.17-.04.25-.03,1.07-.19,2.24-.48,3.52-.3,1.28-.92,2.23-1.88,2.85-.62.28-1.24.32-1.85.11-.62-.21-1.18-.51-1.69-.91-1.69-1.38-3.16-2.99-4.43-4.85-.45-.59-.9-1.17-1.35-1.73-1.18-1.49-5.2-6.48-12.06-14.99-6.86-8.5-14.69-18.22-23.5-29.17-8.81-10.95-16.76-20.82-23.86-29.61-7.1-8.8-11.47-14.25-13.13-16.36-.56-.7-1.14-1.41-1.73-2.11-.08-.11-.17-.22-.25-.34v116.47h1.69v-87.68c2.56,3.15,7.71,9.51,15.47,19.1,7.76,9.58,16.05,19.84,24.87,30.77,7.93,9.75,14.68,18.08,20.26,24.98,5.58,6.9,8.49,10.5,8.75,10.81,1.71,1.55,3.44,2.22,5.16,2.02,1.73-.2,3.42-.87,5.08-2.02,1.66-1.15,3.2-2.37,4.64-3.67.7-.62,1.4-1.24,2.11-1.86v-109.05h-1.69c0,.73.01,3.04.04,6.91Z"/>
    <path class="st0" d="M442.83,306.19c.11.28.22.56.34.84.23.56.46,1.11.72,1.64,1.4,2.81,3.65,4.3,6.74,4.47h5.52c6.27-13.97,12.39-27.99,18.38-42.07,2.92-6.83,5.84-13.63,8.77-20.4,1.55-3.54,3.08-7.07,4.59-10.58,2.3-5.31,4.61-10.61,6.91-15.89,1.07-2.45,2.12-4.89,3.16-7.33,2.87-6.63,5.76-13.26,8.68-19.9h-1.85c-4.08,9.41-8.16,18.84-12.27,28.29-2.05,4.69-4.09,9.39-6.11,14.08h-.04c-4.13,9.55-8.28,19.11-12.44,28.67-4.92,11.35-9.85,22.71-14.8,34.06l-45.53-105.09h-18l24.74,57.29c1.57,3.65,3.15,7.31,4.72,10.96,1.6,3.65,3.19,7.31,4.76,10.96,2.16,5,4.33,10.01,6.49,15.01,2.16,5,4.33,10.01,6.49,15.01Z"/>
    <path class="st0" d="M593.11,225.46c2.56,3.15,7.72,9.51,15.47,19.1,7.76,9.58,16.05,19.84,24.87,30.77,7.92,9.75,14.68,18.08,20.26,24.98,5.58,6.9,8.49,10.5,8.75,10.81,1.71,1.55,3.44,2.22,5.16,2.02,1.73-.2,3.42-.87,5.08-2.02,1.66-1.15,3.2-2.37,4.64-3.67.7-.62,1.4-1.24,2.11-1.86v-109.05h-1.69c0,.73.01,3.04.04,6.91,0,7.62.01,17.88.04,30.79.03,12.91.03,24.91.02,35.98-.01,11.07-.08,17.66-.19,19.77-.03.08-.04.17-.04.25-.03,1.07-.19,2.24-.48,3.52-.3,1.28-.92,2.23-1.88,2.85-.62.28-1.24.32-1.86.11-.62-.21-1.18-.51-1.69-.91-1.69-1.38-3.16-2.99-4.43-4.85-.45-.59-.9-1.17-1.35-1.73-1.18-1.49-5.2-6.48-12.06-14.99-6.86-8.5-14.69-18.22-23.5-29.17-8.81-10.95-16.76-20.82-23.86-29.61-7.1-8.8-11.47-14.25-13.13-16.36-.56-.7-1.14-1.41-1.73-2.11-.08-.11-.17-.22-.25-.34v116.47h1.69v-87.68Z"/>
    <path class="st0" d="M705.75,280.35l.74-1.69,26.01-57.12,24.98,54.86,1.03,2.26.79,1.69,13.22,29.05c1.52,2.16,3.81,3.46,6.87,3.88.42.06,5.41.08,14.96.08h2.02l-3.76-8.26-13.56-29.78h0l-35.77-78.57h-1.75l-53.08,116.6h2.27l15.01-33.01Z"/>
    <path class="st0" d="M476.18,313.36l15.01-33.01.74-1.69,26.01-57.12,24.98,54.86,1.03,2.26.79,1.69,13.22,29.05c1.52,2.16,3.81,3.46,6.87,3.88.42.06,5.41.08,14.96.08h2.02l-3.76-8.26-13.56-29.78h0l-35.77-78.57h-1.75l-53.08,116.6h2.27Z"/>
    <path class="st0" d="M293.4,196.97v116.18h14.57v-116.26s-.04.06-.07.08h-14.5Z"/>
    <path class="st1" d="M153.57,250.87c-7.03-40.84-59.28-64.58-95.37-73.43,31.29,13.43,81.5,37.9,87.54,74.62,3.13,19.54-8.3,37.86-20.79,52.3-13.32,15.08-29.31,27.96-45.58,40.48,33.09-18.22,79.65-50.75,74.2-93.98Z"/>
    <path class="st0" d="M103.98,303.46c1.54-1.83,3.27-4,3.94-6.41,2.06-6.65-.23-12.75.23-18.47.1-.39.13-.61.33-.86,0-.11.2-.1.23-.23.12-.06.27-.13.41-.21,14.99-2.33,24.83-11.34,18.23-27.05-4.67-10.66-12.87-19.09-21.1-26.82-5.53-5-11.3-9.69-17.47-13.81,8.59,9.52,41.84,42.71,31.34,54.95-3.46,3.55-8.5,4.21-13.43,5.25-6.71,2.21-7.09,9.13-6.17,14.59.53,4.05.91,7.62.08,10.56-3.03,6.24-9.63,11.74-14.31,17.1-9.43,10.28-20.5,20.83-26.69,33.48-.81,1.89-1.49,3.95-1.42,6,.41-2,1.38-3.76,2.51-5.4,8.18-11.06,20.05-20.12,30.04-29.54,4.57-4.16,9.1-8.38,13.22-13.12Z"/>
    <path class="st0" d="M142.88,295.84c5.21,9.8,15.46,24.42,12.14,35.43-4.95,10.16-24.43,8.6-34.87,9.66,11.88,3.35,29.9,6.48,38.82-4.59,8.64-13.69-5.98-31.92-16.09-40.49Z"/>
    <path class="st0" d="M143.64,191.64c14.34-13.45,6.27-37.15-14.19-36.91-11.94.19-22.24,10.87-21.71,22.72.58,18.97,22.6,26.98,35.9,14.19ZM129.45,160.62c14.58.24,24.6,19.37,13.77,30.6-7.02,7.76-20.13,6.7-26.7-.84-10.74-11.1-2.63-30.55,12.93-29.76Z"/>
    <g>
      <path class="st1" d="M586.24,335.91c-.14-.09-.28-.13-.43-.13h-1.66v2.3h1.71c.16,0,.3-.04.42-.13.13-.1.24-.23.32-.41h0c.08-.18.12-.39.12-.63s-.05-.43-.14-.61c-.09-.17-.21-.3-.35-.39Z"/>
      <path class="st1" d="M717.24,335.91c-.13-.09-.27-.14-.43-.14h-1.77v2.3h1.84c.16,0,.29-.04.42-.14.14-.11.24-.24.33-.42.08-.18.13-.38.13-.6s-.05-.41-.14-.59c-.1-.18-.22-.32-.36-.42Z"/>
      <polygon class="st1" points="617.45 338.84 619.03 338.84 618.24 336.65 617.45 338.84"/>
      <path class="st1" d="M787.71,328.95h-336.12c-4.78,0-8.66,3.88-8.66,8.66s3.88,8.66,8.66,8.66h336.12c4.78,0,8.66-3.88,8.66-8.66s-3.88-8.66-8.66-8.66ZM461.97,342.48h-1.5l-1.26-3.01-1.27,3.01h-1.49l-3.45-8.44h2.02l2.24,5.85.82-2.04-1.46-3.78h1.83l.75,2.07.75-2.07h1.84l-1.46,3.78.83,2.04,2.24-5.85h2.02l-3.45,8.44ZM477.06,342.48h-5.98v-8.44h5.89v1.71h-4.02v1.61h3.49v1.64h-3.49v1.77h4.12v1.71ZM489.27,342.48h-6.05v-8.44h1.87v6.73h4.18v1.71ZM501.21,342.48h-6.05v-8.44h1.87v6.73h4.19v1.71ZM514.39,342.48h-1.53l-3.9-4.94v4.94h-1.87v-8.44h1.48l3.96,5.06v-5.05h1.86v8.43ZM527.03,342.48h-5.99v-8.44h5.89v1.71h-4.02v1.61h3.49v1.64h-3.49v1.77h4.12v1.71ZM539.06,341.14c-.17.33-.41.6-.72.81-.29.2-.64.35-1.01.44-.37.09-.77.14-1.19.14s-.82-.05-1.23-.13c-.4-.09-.79-.21-1.16-.38-.37-.17-.72-.37-1.03-.61l-.21-.16.91-1.68.3.32s.14.13.34.26c.17.1.37.21.59.3.23.1.48.18.73.24.67.17,1.41.11,1.75-.11.17-.11.25-.26.25-.49,0-.17-.05-.29-.16-.39-.14-.13-.35-.24-.63-.33-.31-.11-.68-.21-1.12-.32-.53-.14-.98-.29-1.35-.47-.39-.19-.69-.44-.89-.74-.2-.31-.31-.7-.31-1.17,0-.57.14-1.07.42-1.48.28-.4.67-.71,1.16-.91.78-.32,1.79-.37,2.64-.17.34.08.66.19.95.34.29.14.56.31.79.49l.21.16-.9,1.65-.29-.36s-.1-.1-.24-.19c-.13-.08-.28-.16-.45-.23-.17-.07-.36-.13-.57-.18-.2-.05-.41-.07-.61-.07-.44,0-.76.07-.95.22-.17.13-.25.3-.25.54,0,.17.04.29.12.38.1.1.28.2.51.27.28.09.64.18,1.05.28.55.13,1.03.29,1.44.47.43.2.77.46,1.01.79.25.34.37.78.37,1.32,0,.44-.09.83-.26,1.15ZM551.3,341.14c-.17.33-.42.6-.72.81-.29.2-.63.35-1.01.44-.37.09-.77.14-1.19.14s-.82-.05-1.23-.13c-.4-.09-.79-.21-1.16-.38-.37-.17-.72-.37-1.04-.61l-.21-.16.91-1.68.3.32s.14.13.34.26c.17.1.37.21.59.3.23.1.48.18.73.24.26.06.52.1.79.1.43,0,.75-.07.96-.21.17-.11.25-.26.25-.49,0-.17-.05-.29-.16-.39-.14-.13-.35-.24-.63-.33-.31-.11-.68-.21-1.12-.32-.53-.14-.98-.29-1.35-.47-.39-.19-.69-.44-.89-.74-.2-.31-.31-.7-.31-1.17,0-.57.14-1.07.42-1.48.28-.4.67-.71,1.16-.91.78-.32,1.79-.38,2.64-.17.34.08.66.19.95.34.3.14.56.31.79.49l.21.16-.9,1.65-.29-.36s-.1-.1-.24-.19c-.13-.08-.28-.16-.45-.23-.17-.07-.36-.13-.57-.18-.2-.05-.41-.07-.61-.07-.44,0-.76.07-.95.22-.17.13-.25.3-.25.54,0,.17.04.29.12.38.1.1.28.2.51.27.28.09.64.18,1.05.28.55.13,1.04.29,1.44.47.43.2.77.46,1.01.79.25.34.37.78.37,1.32,0,.44-.09.83-.26,1.15ZM566.59,340.98c-1.54,0-2.8-1.25-2.8-2.8s1.25-2.8,2.8-2.8,2.8,1.25,2.8,2.8-1.25,2.8-2.8,2.8ZM588.35,338.26c-.22.44-.53.8-.92,1.07-.4.28-.88.43-1.42.43h-1.79v2.72h-1.87v-8.44h3.59c.4,0,.77.09,1.11.25.33.16.62.38.86.65.25.27.44.58.57.92.13.33.2.68.2,1.03,0,.48-.11.94-.32,1.37ZM596.58,342.48h-1.87v-8.44h1.87v8.44ZM609.27,342.48h-6.05v-8.44h1.87v6.73h4.18v1.71ZM620.41,342.48l-.76-2.13h-2.69l-.77,2.13h-1.98l3.29-8.44h1.59l3.28,8.44h-1.97ZM633.72,335.75h-2.6v6.73h-1.87v-6.73h-2.61v-1.71h7.08v1.71ZM645.63,342.48h-5.99v-8.44h5.89v1.71h-4.02v1.61h3.49v1.64h-3.49v1.77h4.12v1.71ZM657.66,341.14c-.17.33-.42.6-.72.81-.29.2-.63.35-1.01.44-.37.09-.77.14-1.19.14s-.82-.05-1.23-.13c-.4-.09-.79-.21-1.16-.38-.37-.17-.72-.37-1.04-.61l-.21-.16.91-1.68.3.32c.05.05.14.14.34.26.17.1.37.21.59.3.23.1.48.18.73.24.67.17,1.41.11,1.75-.11.17-.11.25-.26.25-.49,0-.17-.05-.29-.16-.39-.14-.13-.35-.24-.63-.33-.3-.1-.68-.21-1.12-.32-.53-.14-.99-.3-1.35-.47-.39-.19-.7-.44-.89-.74-.2-.31-.3-.7-.3-1.17,0-.57.14-1.07.42-1.48.28-.4.67-.71,1.16-.91.78-.32,1.8-.37,2.64-.17.34.08.66.19.95.34.29.14.56.3.79.49l.21.16-.9,1.65-.29-.36s-.1-.1-.24-.19c-.13-.08-.28-.16-.44-.23-.17-.07-.37-.13-.57-.18-.2-.05-.41-.07-.61-.07-.44,0-.76.07-.96.22-.17.13-.25.3-.25.54,0,.17.04.29.12.38.1.1.28.2.51.27.28.09.64.18,1.05.28.55.13,1.04.29,1.44.47.43.2.77.46,1.01.79.25.34.37.78.37,1.32,0,.44-.09.83-.26,1.15ZM672.74,340.98c-1.54,0-2.8-1.25-2.8-2.8s1.25-2.8,2.8-2.8,2.8,1.25,2.8,2.8-1.25,2.8-2.8,2.8ZM694.57,341.14c-.17.33-.41.6-.72.81-.29.2-.63.35-1.01.44-.37.09-.77.14-1.19.14s-.82-.05-1.23-.13c-.4-.09-.79-.21-1.16-.38-.37-.17-.72-.37-1.03-.61l-.21-.16.91-1.68.3.32s.14.13.34.26c.17.1.37.21.59.3.23.1.48.18.73.24.67.17,1.41.11,1.75-.11.17-.11.25-.26.25-.49,0-.17-.05-.29-.16-.39-.14-.13-.35-.24-.63-.33-.31-.11-.68-.21-1.12-.32-.53-.14-.98-.29-1.35-.47-.39-.19-.69-.44-.89-.74-.2-.31-.3-.7-.3-1.17,0-.57.14-1.07.42-1.48.28-.4.67-.71,1.16-.91.78-.32,1.8-.37,2.64-.17.34.08.66.19.95.34.3.14.56.31.79.49l.21.16-.89,1.65-.29-.35s-.1-.11-.24-.2c-.13-.08-.28-.16-.44-.23-.17-.07-.36-.13-.57-.18-.2-.05-.41-.07-.61-.07-.44,0-.76.07-.96.22-.17.13-.25.3-.25.54,0,.17.04.29.12.38.1.1.28.2.51.27.28.09.64.18,1.05.28.55.13,1.03.29,1.44.47.43.2.77.46,1.01.79.25.34.37.78.37,1.32,0,.44-.09.83-.26,1.15ZM707.3,335.75h-2.6v6.73h-1.87v-6.73h-2.61v-1.71h7.08v1.71ZM718.12,342.48l-1.7-2.72h-1.32v2.72h-1.87v-8.44h3.72c.4,0,.77.09,1.11.25.33.16.62.39.86.66.24.26.43.57.56.91.14.34.2.69.2,1.03,0,.39-.07.77-.21,1.11-.14.35-.34.66-.6.91-.17.17-.36.31-.57.42l1.94,3.14h-2.12ZM732.01,342.48h-5.99v-8.44h5.89v1.71h-4.02v1.61h3.49v1.64h-3.49v1.77h4.12v1.71ZM745.46,342.48h-1.53l-3.9-4.94v4.94h-1.87v-8.44h1.48l3.96,5.06v-5.05h1.86v8.43ZM759.25,342.48h-1.67v-.6c-.59.43-1.25.65-1.96.65-.56,0-1.09-.12-1.58-.35-.48-.23-.91-.55-1.27-.95-.36-.4-.64-.86-.84-1.37-.2-.52-.3-1.07-.3-1.64s.1-1.12.3-1.62c.2-.5.48-.95.84-1.34.36-.39.79-.71,1.28-.93.49-.23,1.03-.34,1.6-.34.8,0,1.49.17,2.05.51.56.35.99.8,1.27,1.37l.12.24-1.46,1.05-.16-.33c-.19-.37-.44-.65-.76-.83-.6-.34-1.38-.37-1.95-.08-.25.13-.48.32-.66.55-.19.24-.33.51-.44.82-.1.31-.16.64-.16.98,0,.36.06.7.17,1.01.11.31.27.58.47.81.2.23.44.41.7.54.59.28,1.32.25,1.93-.1.26-.15.52-.37.79-.68v-.4h-1.63v-1.55h3.3v4.59ZM771.81,335.75h-2.6v6.73h-1.87v-6.73h-2.61v-1.71h7.08v1.71ZM784.78,342.48h-1.86v-3.45h-3.32v3.45h-1.87v-8.44h1.87v3.27h3.32v-3.27h1.86v8.44Z"/>
    </g>
    <path class="st0" d="M412.23,334.7c-3.29-3.54-6.43-7.3-9.1-11.32-6.75-10.19-13.2-20.59-19.77-30.91-5.67-8.91-10.72-18.32-19.82-24.44,3.5-.9,6.84-1.46,9.97-2.6,12.76-4.64,21.22-13.39,23.52-26.95,2.19-12.91-1.21-24.33-11.5-33.01-6.9-5.82-14.96-8.73-23.6-9.71l-41.07-.53h-4.78v117.92h14.8v-17.9h-.03c-.01-21.63-.02-43.26-.03-64.89,0-6.86-.2-13.72.03-20.57.07-1.98.42-3.96,1.14-5.73,1.61-3.97,5.07-6.9,11.31-6.53,4.94.3,9.93-.07,14.87.3,9.02.67,16.4,4.63,21.53,12.16,6.87,10.06,7.74,21.22,5.01,32.72-3.05,12.83-11.11,20.99-24.21,23.13-5.87.96-11.99.37-18,.51-1.06.02-2.11.13-3.17.2,0,.23,0,.46,0,.69.57.13,1.13.3,1.7.37,11.33,1.35,19.9,6.92,25.86,16.65,3.64,5.93,7.45,11.76,11.2,17.62,6.88,10.74,13.4,21.73,22.21,31.1,7.45,7.92,16.53,11.56,27.83,11.05-7.25-1.94-10.84-3.86-15.89-9.31Z"/>
  </g>
</svg>